<svg width="40" height="40" viewBox="0 0 40 40" fill="none" xmlns="http://www.w3.org/2000/svg">
<path d="M38.61 22.39C38.3 21.38 37.49 20.61 36.47 20.35C36.31 20.31 36.16 20.31 36 20.29V12C36 9.79 34.21 8 32 8H19.58C19.85 8.95 20 9.96 20 11H32C32.55 11 33 11.45 33 12V16.56C32.87 16.5 32.75 16.43 32.61 16.38C31.76 16.12 30.88 15.99 30 15.99C29.13 15.99 28.25 16.12 27.39 16.37C24.35 17.27 22 19.74 21.26 22.82C21.09 23.54 21.01 24.27 21.01 24.99H8C7.45 24.99 7 24.54 7 23.99V21.8C5.94 21.6 4.93 21.26 4 20.78V23.99C4 26.2 5.79 27.99 8 27.99H20.76L17.88 30.87C16.16 32.59 16.16 35.39 17.88 37.11C18.71 37.94 19.82 38.4 21 38.4C22.18 38.4 23.29 37.94 24.12 37.11L27.58 33.65C28.37 33.87 29.18 33.98 30 33.98C30.72 33.98 31.45 33.89 32.17 33.72C35.26 32.98 37.73 30.63 38.62 27.59C39.13 25.87 39.13 24.06 38.62 22.37L38.61 22.39ZM35.74 26.76C35.15 28.76 33.49 30.33 31.46 30.82C30.96 30.94 30.47 31 30 31C28.86 31 27.79 30.67 26.88 30.12L22 35C21.72 35.28 21.36 35.41 21 35.41C20.64 35.41 20.28 35.27 20 35C19.45 34.45 19.45 33.55 20 33L24.88 28.12C24.09 26.83 23.77 25.23 24.17 23.54C24.66 21.51 26.23 19.85 28.23 19.26C28.83 19.08 29.42 19 29.99 19C30.6 19 31.18 19.09 31.73 19.26L28.99 22C27.89 23.1 27.89 24.9 28.99 26C29.54 26.55 30.27 26.83 30.99 26.83C31.71 26.83 32.44 26.55 32.99 26L35.73 23.26C36.05 24.33 36.09 25.52 35.73 26.76H35.74ZM18 11C18 6.04 13.96 2 9 2C4.04 2 0 6.04 0 11C0 15.96 4.04 20 9 20C13.96 20 18 15.96 18 11ZM6.8 16.58C7.32 15.91 8.11 15.5 8.99 15.5C9.87 15.5 10.67 15.91 11.18 16.58C10.5 16.85 9.77 17 9 17C8.23 17 7.48 16.85 6.8 16.58ZM9 5C12.31 5 15 7.69 15 11C15 12.46 14.48 13.79 13.61 14.83C12.54 13.38 10.86 12.5 8.99 12.5C7.12 12.5 5.44 13.38 4.37 14.82C3.51 13.78 2.99 12.45 2.99 11C2.99 7.69 5.68 5 8.99 5H9ZM6 9C6 7.34 7.34 6 9 6C10.66 6 12 7.34 12 9C12 10.66 10.66 12 9 12C7.34 12 6 10.66 6 9Z" fill="#FF9814"/>
</svg>
