<svg width="40" height="40" viewBox="0 0 40 40" fill="none" xmlns="http://www.w3.org/2000/svg">
<path d="M4.14 10.7579C4.9 10.268 6.23 10.0281 8.14 10.0281V12.6673C7.37 12.6873 6.83 12.8372 6.54 13.1172C6.25 13.3971 6.1 13.7969 6.1 14.3268V17.8257C6.05 19.2952 5.14 20.1649 3.36 20.4249V20.5648C5.19 20.8347 6.1 21.6645 6.1 23.0441V26.6529C6.1 27.1828 6.24 27.5826 6.53 27.8625C6.82 28.1425 7.35 28.2824 8.14 28.3124V30.9616C6.23 30.9616 4.9 30.7217 4.14 30.2318C3.38 29.742 3 28.9022 3 27.6926V24.0037C3 23.324 2.74 22.8041 2.23 22.4442C1.72 22.0844 0.97 21.9044 0 21.9044V19.1053C0.98 19.1053 1.73 18.9353 2.24 18.5854C2.75 18.2356 3 17.7457 3 17.1059V13.2871C3 12.0875 3.38 11.2477 4.14 10.7579ZM37.72 18.6054C37.24 18.2755 37 17.7857 37 17.1259V13.2871C37 12.4274 36.84 11.7776 36.53 11.3277C36.22 10.8779 35.68 10.548 34.94 10.348C34.2 10.1481 33.17 10.0381 31.87 10.0381V12.6773C32.65 12.6973 33.19 12.8472 33.48 13.1072C33.77 13.3671 33.91 13.7769 33.91 14.3268V17.8257C33.96 19.2952 34.87 20.1649 36.64 20.4249V20.5648C35.74 20.6948 35.06 20.9747 34.6 21.3946C34.14 21.8144 33.91 22.3543 33.91 23.0241V26.6529C33.91 27.2028 33.76 27.6126 33.47 27.8825C33.18 28.1525 32.64 28.2924 31.87 28.3024V30.9516C33.17 30.9516 34.2 30.8516 34.93 30.6417C35.66 30.4317 36.2 30.1118 36.52 29.662C36.84 29.2121 37 28.5523 37 27.6826V23.9938C37 23.234 37.26 22.6942 37.77 22.3743C38.28 22.0544 39.03 21.8944 40 21.8944V19.0953C38.96 19.0953 38.2 18.9353 37.72 18.6054ZM29 21.0047V27.0028C29 31.9713 24.97 36 20 36C15.03 36 11 31.9713 11 27.0028V21.0047C11 18.7954 12.79 17.0059 15 17.0059H23V9.99813C23 8.34864 21.65 6.99906 20 6.99906C18.35 6.99906 17 8.34864 17 9.99813V11.9975C17 12.8272 16.33 13.497 15.5 13.497C14.67 13.497 14 12.8272 14 11.9975V9.99813C14 6.68916 16.69 4 20 4C23.31 4 26 6.68916 26 9.99813V17.1359C27.72 17.5858 29 19.1353 29 20.9947V21.0047ZM26 21.0047C26 20.4549 25.55 20.005 25 20.005H15C14.45 20.005 14 20.4549 14 21.0047V27.0028C14 30.3118 16.69 33.0009 20 33.0009C23.31 33.0009 26 30.3118 26 27.0028V21.0047ZM20 25.0034C18.9 25.0034 18 25.9032 18 27.0028C18 28.1025 18.9 29.0022 20 29.0022C21.1 29.0022 22 28.1025 22 27.0028C22 25.9032 21.1 25.0034 20 25.0034Z" fill="#FF9814"/>
</svg>
