<svg width="96" height="96" viewBox="0 0 96 96" fill="none" xmlns="http://www.w3.org/2000/svg">
<path d="M8.75251 48.8099C13.5675 29.9324 37.875 3.60738 55.95 8.22738C74.025 12.8474 88.005 37.8374 83.19 56.7149C78.375 75.5924 57 96.4274 27.8775 88.9874C9.79501 84.3674 3.93001 67.6874 8.75251 48.8099Z" fill="#FF9814" fill-opacity="0.05"/>
<path d="M38.715 11.9325C59.2725 11.67 92.7525 28.2675 92.9925 46.9275C93.2325 65.5875 71.58 85.5975 51.03 85.86C30.48 86.1225 3.39002 70.9275 3.00002 40.8675C2.76002 22.2075 18.165 12.195 38.715 11.9325Z" fill="#FF9814" fill-opacity="0.05"/>
<path d="M81.825 57.885C70.41 74.985 37.7775 93.195 22.26 82.8375C6.73499 72.48 2.48999 43.305 13.905 26.205C25.3125 9.10497 53.175 -4.62753 78.1725 12.06C93.69 22.4175 93.2325 40.785 81.825 57.885Z" fill="#FF9814" fill-opacity="0.05"/>
</svg>
