<svg width="32" height="32" viewBox="0 0 32 32" fill="none" xmlns="http://www.w3.org/2000/svg">
<g clip-path="url(#clip0_19718_3987)">
<path d="M15.985 0C7.16776 0 0 7.16 0 15.98C0 24.8 7.11778 31.95 15.955 31.96V21.57H12.1062V17.1H15.955V13.78C15.955 9.96 18.3143 7.88 21.7232 7.88C23.3527 7.88 24.7823 8 25.2021 8.06V12.05H22.8429C20.9934 12.05 20.6336 12.93 20.6336 14.22V17.1H25.0122L24.4324 21.57H20.6336V31.29C27.1815 29.32 32 23.21 32 15.98C31.99 7.16 24.8122 0 15.985 0Z" fill="#8A8A8A"/>
</g>
<defs>
<clipPath id="clip0_19718_3987">
<rect width="32" height="32" fill="white"/>
</clipPath>
</defs>
</svg>
