<svg width="32" height="32" viewBox="0 0 32 32" fill="none" xmlns="http://www.w3.org/2000/svg">
<g clip-path="url(#clip0_19685_13516)">
<path d="M16.025 0C7.16222 0 0 7.16 0 16.02C0 23.09 4.57142 29.12 10.9334 31.23C11.7436 31.36 12.0637 30.87 12.0637 30.45V27.69C7.59235 28.66 6.61205 25.58 6.61205 25.58C5.90183 23.73 4.8315 23.25 4.8315 23.25C3.37104 22.25 4.96154 22.28 4.96154 22.28C6.55203 22.38 7.39229 23.9 7.39229 23.9C8.82273 26.36 11.1835 25.62 12.0937 25.23C12.2538 24.19 12.6739 23.45 13.1341 23.06C9.56296 22.64 5.77179 21.34 5.77179 15.18C5.77179 13.43 6.39198 12 7.39229 10.9C7.23224 10.48 6.71208 8.89 7.58235 6.69C7.58235 6.69 8.88275 6.27 11.9637 8.31C13.2241 7.95 14.6545 7.73 16.015 7.73C17.3754 7.73 18.7758 7.96 20.0662 8.31C23.1172 6.27 24.4076 6.69 24.4076 6.69C25.2878 8.89 24.7677 10.48 24.6076 10.9C25.6079 12 26.2281 13.43 26.2281 15.18C26.2281 21.34 22.4369 22.64 18.8658 23.06C19.446 23.55 19.9362 24.52 19.9362 26.01V30.45C19.9362 30.9 20.2563 31.39 21.0665 31.23C27.4185 29.09 31.9999 23.09 31.9999 16.02C32.0299 7.17 24.8277 0 16.015 0L16.025 0Z" fill="#8A8A8A"/>
</g>
<defs>
<clipPath id="clip0_19685_13516">
<rect width="32" height="32" fill="white"/>
</clipPath>
</defs>
</svg>
