<svg width="40" height="40" viewBox="0 0 40 40" fill="none" xmlns="http://www.w3.org/2000/svg">
<path d="M31 17C33.76 17 36 14.76 36 12C36 9.24 33.76 7 31 7C28.24 7 26 9.24 26 12C26 14.76 28.24 17 31 17ZM31 10C32.1 10 33 10.9 33 12C33 13.1 32.1 14 31 14C29.9 14 29 13.1 29 12C29 10.9 29.9 10 31 10ZM9 17C11.76 17 14 14.76 14 12C14 9.24 11.76 7 9 7C6.24 7 4 9.24 4 12C4 14.76 6.24 17 9 17ZM9 10C10.1 10 11 10.9 11 12C11 13.1 10.1 14 9 14C7.9 14 7 13.1 7 12C7 10.9 7.9 10 9 10ZM12.61 22.86C11.64 22.01 10.38 21.5 9 21.5C5.97 21.5 3.5 23.97 3.5 27C3.5 27.83 2.83 28.5 2 28.5C1.17 28.5 0.5 27.83 0.5 27C0.5 22.31 4.31 18.5 9 18.5C11.42 18.5 13.59 19.52 15.14 21.14C14.22 21.6 13.37 22.18 12.61 22.86ZM39.5 27C39.5 27.83 38.83 28.5 38 28.5C37.17 28.5 36.5 27.83 36.5 27C36.5 23.97 34.03 21.5 31 21.5C29.62 21.5 28.35 22.02 27.39 22.86C26.63 22.17 25.79 21.59 24.86 21.14C26.41 19.52 28.59 18.5 31 18.5C35.69 18.5 39.5 22.31 39.5 27ZM28.5 31C28.5 31.83 27.83 32.5 27 32.5C26.17 32.5 25.5 31.83 25.5 31C25.5 27.97 23.03 25.5 20 25.5C16.97 25.5 14.5 27.97 14.5 31C14.5 31.83 13.83 32.5 13 32.5C12.17 32.5 11.5 31.83 11.5 31C11.5 26.31 15.31 22.5 20 22.5C24.69 22.5 28.5 26.31 28.5 31ZM20 21C22.76 21 25 18.76 25 16C25 13.24 22.76 11 20 11C17.24 11 15 13.24 15 16C15 18.76 17.24 21 20 21ZM20 14C21.1 14 22 14.9 22 16C22 17.1 21.1 18 20 18C18.9 18 18 17.1 18 16C18 14.9 18.9 14 20 14Z" fill="#FF9814"/>
</svg>
