<svg width="40" height="40" viewBox="0 0 40 40" fill="none" xmlns="http://www.w3.org/2000/svg">
<path d="M38.61 22.39C38.3 21.38 37.49 20.61 36.47 20.35C36.31 20.31 36.16 20.31 36 20.29V12C36 9.79 34.21 8 32 8H8C5.79 8 4 9.79 4 12V24C4 26.21 5.79 28 8 28H20.76L17.88 30.88C16.16 32.6 16.16 35.4 17.88 37.12C18.71 37.95 19.82 38.41 21 38.41C22.18 38.41 23.29 37.95 24.12 37.12L27.58 33.66C28.37 33.88 29.18 33.99 30 33.99C30.72 33.99 31.45 33.9 32.17 33.73C35.26 32.99 37.73 30.64 38.62 27.6C39.13 25.88 39.13 24.07 38.62 22.38L38.61 22.39ZM7 24V12C7 11.45 7.45 11 8 11H32C32.55 11 33 11.45 33 12V16.56C32.87 16.5 32.75 16.43 32.61 16.38C31.76 16.12 30.88 15.99 30 15.99C29.13 15.99 28.25 16.12 27.39 16.37C24.35 17.27 22 19.74 21.26 22.82C21.09 23.54 21.01 24.27 21.01 24.99H8C7.45 24.99 7 24.54 7 23.99V24ZM35.74 26.76C35.15 28.76 33.49 30.33 31.46 30.82C30.96 30.94 30.47 31 30 31C28.86 31 27.79 30.67 26.88 30.12L22 35C21.72 35.28 21.36 35.41 21 35.41C20.64 35.41 20.28 35.27 20 35C19.45 34.45 19.45 33.55 20 33L24.88 28.12C24.09 26.83 23.77 25.23 24.17 23.54C24.66 21.51 26.23 19.85 28.23 19.26C28.83 19.08 29.42 19 29.99 19C30.6 19 31.18 19.09 31.73 19.26L28.99 22C27.89 23.1 27.89 24.9 28.99 26C29.54 26.55 30.27 26.83 30.99 26.83C31.71 26.83 32.44 26.55 32.99 26L35.73 23.26C36.05 24.33 36.09 25.52 35.73 26.76H35.74Z" fill="#FF9814"/>
</svg>
