<svg width="32" height="32" viewBox="0 0 32 32" fill="none" xmlns="http://www.w3.org/2000/svg">
<path d="M18.0444 16C18.0444 20.97 14.0056 25 9.01718 25C4.02874 25 0 20.97 0 16C0 11.03 4.03874 7 9.02718 7C14.0156 7 18.0544 11.03 18.0544 16H18.0444ZM23.3427 7.5C20.8335 7.5 18.8041 11.31 18.8041 16C18.8041 20.69 20.8335 24.5 23.3427 24.5C25.8519 24.5 27.8813 20.69 27.8813 16C27.8813 11.31 25.8519 7.5 23.3427 7.5ZM30.4405 8.49C29.5808 8.49 28.881 11.85 28.881 16C28.881 20.15 29.5808 23.51 30.4405 23.51C31.3002 23.51 32 20.15 32 16C32 11.85 31.3002 8.49 30.4405 8.49Z" fill="#8A8A8A"/>
</svg>
