<svg width="40" height="40" viewBox="0 0 40 40" fill="none" xmlns="http://www.w3.org/2000/svg">
<path d="M20 2C10.06 2 2 10.06 2 20C2 29.94 10.06 38 20 38C29.94 38 38 29.94 38 20C38 10.06 29.94 2 20 2ZM20 35C11.73 35 5 28.27 5 20C5 11.73 11.73 5 20 5C28.27 5 35 11.73 35 20C35 28.27 28.27 35 20 35ZM28.61 17.47L17.61 10.47C17.12 10.16 16.56 10 16 10C15.5 10 15.01 10.12 14.56 10.37C13.6 10.9 13 11.9 13 13V27C13 28.09 13.6 29.1 14.56 29.63C15.01 29.88 15.51 30 16 30C16.56 30 17.12 29.84 17.61 29.53L28.61 22.53C29.48 21.98 30 21.02 30 20C30 18.98 29.48 18.02 28.61 17.47ZM16 27V13L27 20L16 27Z" fill="#FF9814"/>
</svg>
