<svg width="40" height="40" viewBox="0 0 40 40" fill="none" xmlns="http://www.w3.org/2000/svg">
<path d="M32 8H8C5.79 8 4 9.79 4 12V24C4 26.21 5.79 28 8 28H13L22.17 37.17C22.95 37.95 23.97 38.34 25 38.34C26.03 38.34 27.05 37.95 27.83 37.17L29.17 35.83C30.73 34.27 30.73 31.74 29.17 30.17L19.17 20.17C18.42 19.42 17.4 19 16.34 19H11V24.34C11 24.56 11.03 24.78 11.06 25H8C7.45 25 7 24.55 7 24V12C7 11.45 7.45 11 8 11H32C32.55 11 33 11.45 33 12V24C33 24.55 32.55 25 32 25H27L30 28H32C34.21 28 36 26.21 36 24V12C36 9.79 34.21 8 32 8ZM27.05 33.71L25.71 35.05C25.46 35.3 25.16 35.34 25 35.34C24.84 35.34 24.55 35.3 24.29 35.05L23.18 33.94L25.94 31.18L27.05 32.29C27.44 32.68 27.44 33.31 27.05 33.7V33.71ZM14 22H16.34C16.61 22 16.86 22.1 17.05 22.29L23.82 29.06L21.06 31.82L14.29 25.05C14.1 24.86 14 24.61 14 24.34V22Z" fill="#FF9814"/>
</svg>
