<svg width="32" height="32" viewBox="0 0 32 32" fill="none" xmlns="http://www.w3.org/2000/svg">
<g clip-path="url(#clip0_19685_13524)">
<path d="M16 0C7.16 0 0 7.16 0 16C0 24.84 7.16 32 16 32C24.84 32 32 24.84 32 16C32 7.16 24.84 0 16 0ZM24.99 12.7C24.99 12.89 25 13.07 25 13.26C25 18.96 20.66 25.54 12.72 25.54C10.28 25.54 8.01 24.83 6.1 23.6C6.44 23.64 6.78 23.66 7.13 23.66C9.15 23.66 11.01 22.97 12.49 21.81C10.6 21.78 9.01 20.53 8.46 18.81C8.72 18.86 8.99 18.89 9.27 18.89C9.66 18.89 10.05 18.84 10.41 18.74C8.44 18.34 6.95 16.6 6.95 14.51V14.46C7.53 14.78 8.2 14.98 8.91 15C7.75 14.23 6.99 12.9 6.99 11.41C6.99 10.62 7.2 9.88 7.57 9.24C9.7 11.85 12.88 13.57 16.47 13.75C16.4 13.43 16.36 13.1 16.36 12.77C16.36 10.39 18.29 8.45 20.68 8.45C21.92 8.45 23.04 8.97 23.83 9.81C24.81 9.62 25.74 9.26 26.57 8.76C26.25 9.77 25.56 10.61 24.67 11.15C25.54 11.05 26.38 10.81 27.15 10.47C26.57 11.34 25.84 12.1 25 12.7H24.99Z" fill="#8A8A8A"/>
</g>
<defs>
<clipPath id="clip0_19685_13524">
<rect width="32" height="32" fill="white"/>
</clipPath>
</defs>
</svg>
